<svg width="255" height="135" viewBox="0 0 255 135" fill="none" xmlns="http://www.w3.org/2000/svg">
<path d="M81.4469 24.7294C81.4469 24.2974 81.6549 24.0014 82.0709 23.8414L82.5269 23.6734C82.7349 23.5934 82.8869 23.4934 82.9829 23.3734C83.0869 23.2454 83.1389 23.0814 83.1389 22.8814V11.4094C83.1389 11.2094 83.0869 11.0494 82.9829 10.9294C82.8869 10.8014 82.7349 10.6974 82.5269 10.6174L82.0709 10.4494C81.6549 10.2894 81.4469 9.99341 81.4469 9.56141C81.4469 9.30541 81.5309 9.10541 81.6989 8.96141C81.8669 8.81741 82.1269 8.74541 82.4789 8.74541H89.9309C91.4029 8.74541 92.7389 8.96541 93.9389 9.40541C95.1469 9.84541 96.1829 10.4694 97.0469 11.2774C97.9189 12.0774 98.5869 13.0294 99.0509 14.1334C99.5229 15.2294 99.7589 16.4414 99.7589 17.7694C99.7589 19.2654 99.4029 20.6014 98.6909 21.7774C97.9789 22.9454 96.9749 23.8654 95.6789 24.5374C94.3829 25.2094 92.8549 25.5454 91.0949 25.5454H82.4789C82.1269 25.5454 81.8669 25.4734 81.6989 25.3294C81.5309 25.1774 81.4469 24.9774 81.4469 24.7294ZM90.3869 23.8294C91.0669 23.8294 91.6829 23.6214 92.2349 23.2054C92.7869 22.7894 93.2229 22.1334 93.5429 21.2374C93.8709 20.3334 94.0349 19.1574 94.0349 17.7094C94.0349 16.5654 93.9269 15.5454 93.7109 14.6494C93.5029 13.7534 93.1909 12.9934 92.7749 12.3694C92.3669 11.7454 91.8709 11.2734 91.2869 10.9534C90.7029 10.6254 90.0389 10.4614 89.2949 10.4614H88.7069V22.4974C88.7069 22.9614 88.8229 23.3014 89.0549 23.5174C89.2949 23.7254 89.6349 23.8294 90.0749 23.8294H90.3869ZM108.457 23.9014V23.6254L108.073 23.6134V15.8614C108.073 15.5574 107.989 15.3134 107.821 15.1294C107.661 14.9454 107.441 14.8534 107.161 14.8534C106.953 14.8534 106.769 14.9054 106.609 15.0094C106.457 15.1054 106.381 15.2374 106.381 15.4054V16.7134C106.381 17.3854 106.149 17.9054 105.685 18.2734C105.229 18.6414 104.573 18.8254 103.717 18.8254C102.989 18.8254 102.445 18.6734 102.085 18.3694C101.733 18.0574 101.557 17.6254 101.557 17.0734C101.557 16.5454 101.797 16.0174 102.277 15.4894C102.757 14.9614 103.477 14.5214 104.437 14.1694C105.405 13.8174 106.621 13.6414 108.085 13.6414C109.781 13.6414 111.041 13.9534 111.865 14.5774C112.689 15.1934 113.101 16.0374 113.101 17.1094V22.8454C113.101 22.9974 113.137 23.1254 113.209 23.2294C113.289 23.3254 113.409 23.3734 113.569 23.3734C113.705 23.3734 113.813 23.3374 113.893 23.2654C113.981 23.1934 114.061 23.1214 114.133 23.0494C114.189 22.9934 114.245 22.9454 114.301 22.9054C114.365 22.8654 114.437 22.8454 114.517 22.8454C114.653 22.8454 114.749 22.8974 114.805 23.0014C114.869 23.0974 114.901 23.2214 114.901 23.3734C114.901 23.7254 114.773 24.0974 114.517 24.4894C114.261 24.8734 113.877 25.2014 113.365 25.4734C112.861 25.7454 112.233 25.8814 111.481 25.8814C110.593 25.8814 109.865 25.6934 109.297 25.3174C108.737 24.9414 108.457 24.4694 108.457 23.9014ZM101.125 22.9894C101.125 21.8934 101.621 21.0294 102.613 20.3974C103.605 19.7574 104.997 19.4374 106.789 19.4374C107.261 19.4374 107.673 19.4694 108.025 19.5334C108.377 19.5974 108.665 19.6894 108.889 19.8094L108.481 20.8534C108.313 20.7574 108.153 20.6894 108.001 20.6494C107.857 20.6094 107.697 20.5894 107.521 20.5894C107.129 20.5894 106.817 20.7214 106.585 20.9854C106.361 21.2414 106.249 21.6134 106.249 22.1014C106.249 22.6134 106.361 23.0054 106.585 23.2774C106.809 23.5414 107.105 23.6734 107.473 23.6734C107.705 23.6734 107.921 23.6214 108.121 23.5174C108.329 23.4054 108.485 23.2774 108.589 23.1334L108.877 24.0934C108.493 24.6614 107.933 25.1014 107.197 25.4134C106.469 25.7254 105.689 25.8814 104.857 25.8814C103.737 25.8814 102.833 25.6054 102.145 25.0534C101.465 24.5014 101.125 23.8134 101.125 22.9894ZM121.79 14.6974V23.0254C121.79 23.3454 121.814 23.5694 121.862 23.6974C121.91 23.8254 121.994 23.9214 122.114 23.9854L122.354 24.1174C122.618 24.2694 122.75 24.4894 122.75 24.7774C122.75 25.2894 122.442 25.5454 121.826 25.5454H116.51C116.19 25.5454 115.958 25.4814 115.814 25.3534C115.67 25.2254 115.598 25.0494 115.598 24.8254C115.598 24.6654 115.638 24.5254 115.718 24.4054C115.798 24.2854 115.93 24.1854 116.114 24.1054L116.378 23.9854C116.498 23.9294 116.582 23.8374 116.63 23.7094C116.678 23.5734 116.702 23.3454 116.702 23.0254V17.3854C116.702 17.1294 116.666 16.9494 116.594 16.8454C116.53 16.7334 116.43 16.6574 116.294 16.6174L116.03 16.5334C115.862 16.4774 115.738 16.3974 115.658 16.2934C115.586 16.1894 115.55 16.0574 115.55 15.8974C115.55 15.7054 115.602 15.5534 115.706 15.4414C115.81 15.3294 116.006 15.2174 116.294 15.1054L118.958 14.0734C119.366 13.9134 119.694 13.7974 119.942 13.7254C120.198 13.6534 120.446 13.6174 120.686 13.6174C121.046 13.6174 121.318 13.7214 121.502 13.9294C121.694 14.1294 121.79 14.3854 121.79 14.6974ZM121.358 17.6254L120.638 16.8574L120.998 16.5214C122.126 15.4414 123.106 14.6894 123.938 14.2654C124.77 13.8334 125.534 13.6174 126.23 13.6174C127.302 13.6174 128.166 13.9734 128.822 14.6854C129.478 15.3894 129.806 16.3134 129.806 17.4574V23.0254C129.806 23.3454 129.83 23.5734 129.878 23.7094C129.926 23.8374 130.01 23.9294 130.13 23.9854L130.394 24.1054C130.578 24.1854 130.71 24.2854 130.79 24.4054C130.87 24.5254 130.91 24.6654 130.91 24.8254C130.91 25.0494 130.838 25.2254 130.694 25.3534C130.55 25.4814 130.318 25.5454 129.998 25.5454H124.682C124.066 25.5454 123.758 25.2894 123.758 24.7774C123.758 24.4894 123.89 24.2694 124.154 24.1174L124.394 23.9854C124.514 23.9214 124.598 23.8254 124.646 23.6974C124.694 23.5694 124.718 23.3454 124.718 23.0254V18.1774C124.718 17.6654 124.598 17.2814 124.358 17.0254C124.126 16.7694 123.798 16.6414 123.374 16.6414C123.11 16.6414 122.834 16.6934 122.546 16.7974C122.258 16.9014 122.002 17.0534 121.778 17.2534L121.358 17.6254ZM143.991 17.3254C143.991 17.9334 143.759 18.4494 143.295 18.8734C142.839 19.2974 142.227 19.5094 141.459 19.5094C140.715 19.5094 140.155 19.3134 139.779 18.9214C139.411 18.5214 139.227 18.0134 139.227 17.3974V17.0134C139.227 16.4934 139.119 16.0854 138.903 15.7894C138.687 15.4854 138.403 15.3334 138.051 15.3334C137.771 15.3334 137.507 15.4374 137.259 15.6454C137.019 15.8534 136.823 16.1734 136.671 16.6054C136.519 17.0294 136.443 17.5694 136.443 18.2254C136.443 19.1534 136.599 19.9294 136.911 20.5534C137.231 21.1774 137.667 21.6494 138.219 21.9694C138.771 22.2814 139.399 22.4374 140.103 22.4374C140.615 22.4374 141.075 22.3774 141.483 22.2574C141.899 22.1294 142.311 21.8854 142.719 21.5254C142.951 21.3174 143.127 21.1774 143.247 21.1054C143.367 21.0334 143.483 20.9974 143.595 20.9974C143.755 20.9974 143.871 21.0774 143.943 21.2374C144.023 21.3974 144.063 21.5934 144.063 21.8254C144.063 22.5374 143.823 23.2054 143.343 23.8294C142.871 24.4454 142.211 24.9414 141.363 25.3174C140.515 25.6934 139.531 25.8814 138.411 25.8814C137.187 25.8814 136.087 25.6414 135.111 25.1614C134.143 24.6734 133.375 23.9974 132.807 23.1334C132.239 22.2614 131.955 21.2454 131.955 20.0854C131.955 18.8454 132.227 17.7374 132.771 16.7614C133.323 15.7854 134.099 15.0174 135.099 14.4574C136.107 13.8974 137.295 13.6174 138.663 13.6174C139.759 13.6174 140.703 13.7854 141.495 14.1214C142.295 14.4494 142.911 14.8934 143.343 15.4534C143.775 16.0134 143.991 16.6374 143.991 17.3254ZM151.194 17.6254L150.474 16.8574L150.834 16.5214C151.962 15.4414 152.942 14.6894 153.774 14.2654C154.606 13.8334 155.37 13.6174 156.066 13.6174C157.138 13.6174 158.002 13.9734 158.658 14.6854C159.314 15.3894 159.642 16.3134 159.642 17.4574V23.0254C159.642 23.3454 159.666 23.5734 159.714 23.7094C159.762 23.8374 159.846 23.9294 159.966 23.9854L160.23 24.1054C160.414 24.1854 160.546 24.2854 160.626 24.4054C160.706 24.5254 160.746 24.6654 160.746 24.8254C160.746 25.0494 160.674 25.2254 160.53 25.3534C160.386 25.4814 160.154 25.5454 159.834 25.5454H154.518C153.902 25.5454 153.594 25.2894 153.594 24.7774C153.594 24.4894 153.726 24.2694 153.99 24.1174L154.23 23.9854C154.35 23.9214 154.434 23.8254 154.482 23.6974C154.53 23.5694 154.554 23.3454 154.554 23.0254V18.1774C154.554 17.6654 154.434 17.2814 154.194 17.0254C153.962 16.7694 153.634 16.6414 153.21 16.6414C152.946 16.6414 152.67 16.6934 152.382 16.7974C152.094 16.9014 151.838 17.0534 151.614 17.2534L151.194 17.6254ZM151.626 8.50541V23.0254C151.626 23.3454 151.65 23.5694 151.698 23.6974C151.746 23.8254 151.83 23.9214 151.95 23.9854L152.19 24.1174C152.454 24.2694 152.586 24.4894 152.586 24.7774C152.586 25.2894 152.278 25.5454 151.662 25.5454H146.346C146.026 25.5454 145.794 25.4814 145.65 25.3534C145.506 25.2254 145.434 25.0494 145.434 24.8254C145.434 24.6654 145.474 24.5254 145.554 24.4054C145.634 24.2854 145.766 24.1854 145.95 24.1054L146.214 23.9854C146.334 23.9294 146.418 23.8374 146.466 23.7094C146.514 23.5734 146.538 23.3454 146.538 23.0254V11.1934C146.538 10.9374 146.502 10.7574 146.43 10.6534C146.366 10.5414 146.266 10.4654 146.13 10.4254L145.866 10.3414C145.698 10.2854 145.574 10.2054 145.494 10.1014C145.422 9.99741 145.386 9.86541 145.386 9.70541C145.386 9.51341 145.438 9.36141 145.542 9.24941C145.646 9.13741 145.842 9.02541 146.13 8.91341L148.794 7.88141C149.202 7.72141 149.53 7.60541 149.778 7.53341C150.034 7.46141 150.282 7.42541 150.522 7.42541C150.882 7.42541 151.154 7.52941 151.338 7.73741C151.53 7.93741 151.626 8.19341 151.626 8.50541ZM174.043 18.2494C174.043 18.8094 173.891 19.2454 173.587 19.5574C173.283 19.8614 172.847 20.0134 172.279 20.0134H165.163V18.7654H168.367C168.807 18.7654 169.027 18.5574 169.027 18.1414C169.027 17.1334 168.911 16.4134 168.679 15.9814C168.447 15.5494 168.139 15.3334 167.755 15.3334C167.475 15.3334 167.223 15.4374 166.999 15.6454C166.775 15.8534 166.595 16.1734 166.459 16.6054C166.331 17.0294 166.267 17.5694 166.267 18.2254C166.267 19.6814 166.595 20.7494 167.251 21.4294C167.907 22.1014 168.803 22.4374 169.939 22.4374C170.467 22.4374 170.947 22.3774 171.379 22.2574C171.811 22.1374 172.235 21.8934 172.651 21.5254C172.883 21.3174 173.059 21.1774 173.179 21.1054C173.299 21.0334 173.415 20.9974 173.527 20.9974C173.687 20.9974 173.803 21.0774 173.875 21.2374C173.955 21.3974 173.995 21.5934 173.995 21.8254C173.995 22.5374 173.751 23.2054 173.263 23.8294C172.783 24.4454 172.111 24.9414 171.247 25.3174C170.391 25.6934 169.391 25.8814 168.247 25.8814C167.023 25.8814 165.923 25.6414 164.947 25.1614C163.971 24.6734 163.199 23.9974 162.631 23.1334C162.063 22.2614 161.779 21.2454 161.779 20.0854C161.779 18.7814 162.039 17.6454 162.559 16.6774C163.079 15.7094 163.835 14.9574 164.827 14.4214C165.827 13.8854 167.031 13.6174 168.439 13.6174C169.679 13.6174 170.715 13.8174 171.547 14.2174C172.379 14.6174 173.003 15.1654 173.419 15.8614C173.835 16.5574 174.043 17.3534 174.043 18.2494Z" fill="#333D4B"/>
<path d="M25.8614 65.1294V64.5534C25.8614 64.4254 25.7814 64.3454 25.6534 64.3454H18.8214C18.6934 64.3454 18.6134 64.4254 18.6134 64.5534V75.3374C18.6134 75.4654 18.6934 75.5454 18.8214 75.5454H25.6534C25.7814 75.5454 25.8614 75.4654 25.8614 75.3374V74.7614C25.8614 74.6334 25.7814 74.5534 25.6534 74.5534H19.8294C19.7814 74.5534 19.7494 74.5214 19.7494 74.4734V70.4894C19.7494 70.4414 19.7814 70.4094 19.8294 70.4094H23.8934C24.0214 70.4094 24.1014 70.3294 24.1014 70.2014V69.6254C24.1014 69.4974 24.0214 69.4174 23.8934 69.4174H19.8294C19.7814 69.4174 19.7494 69.3854 19.7494 69.3374V65.4174C19.7494 65.3694 19.7814 65.3374 19.8294 65.3374H25.6534C25.7814 65.3374 25.8614 65.2574 25.8614 65.1294ZM31.7089 68.1854V67.6574C31.7089 67.5294 31.6289 67.4494 31.5009 67.4494H29.7569C29.7089 67.4494 29.6769 67.4174 29.6769 67.3694V65.5774C29.6769 65.4494 29.5969 65.3694 29.4689 65.3694H28.7809C28.6529 65.3694 28.5729 65.4494 28.5729 65.5774V67.3694C28.5729 67.4174 28.5409 67.4494 28.4929 67.4494H27.5809C27.4529 67.4494 27.3729 67.5294 27.3729 67.6574V68.1854C27.3729 68.3134 27.4529 68.3934 27.5809 68.3934H28.4929C28.5409 68.3934 28.5729 68.4254 28.5729 68.4734V73.4974C28.5729 75.1614 29.5169 75.5294 30.9089 75.5294H31.4529C31.5969 75.5134 31.6609 75.4334 31.6609 75.3054V74.7454C31.6609 74.6174 31.5809 74.5374 31.4529 74.5374H31.1009C30.1409 74.5374 29.6769 74.1854 29.6769 73.1454V68.4734C29.6769 68.4254 29.7089 68.3934 29.7569 68.3934H31.5009C31.6289 68.3934 31.7089 68.3134 31.7089 68.1854ZM37.265 67.3374C36.337 67.3374 35.585 67.6574 35.121 68.2974C35.089 68.3614 35.041 68.3134 35.041 68.2494V64.5534C35.041 64.4254 34.961 64.3454 34.833 64.3454H34.113C33.985 64.3454 33.905 64.4254 33.905 64.5534V75.3374C33.905 75.4654 33.985 75.5454 34.113 75.5454H34.833C34.961 75.5454 35.041 75.4654 35.041 75.3374V70.0094C35.153 69.0014 35.921 68.3294 37.009 68.3294C38.145 68.3294 38.913 69.1454 38.913 70.3294V75.3374C38.913 75.4654 38.993 75.5454 39.121 75.5454H39.841C39.969 75.5454 40.049 75.4654 40.049 75.3374V70.1054C40.049 68.4254 38.945 67.3374 37.265 67.3374ZM43.218 65.9934C43.73 65.9934 44.082 65.6574 44.082 65.1614C44.082 64.6814 43.73 64.3454 43.218 64.3454C42.706 64.3454 42.354 64.6814 42.354 65.1614C42.354 65.6574 42.706 65.9934 43.218 65.9934ZM42.866 75.5454H43.586C43.714 75.5454 43.794 75.4654 43.794 75.3374V67.6574C43.794 67.5294 43.714 67.4494 43.586 67.4494H42.866C42.738 67.4494 42.658 67.5294 42.658 67.6574V75.3374C42.658 75.4654 42.738 75.5454 42.866 75.5454ZM49.5559 75.6734C51.0759 75.6734 52.2439 74.8254 52.6599 73.4494C52.8199 72.9214 52.8839 72.2494 52.8839 71.4814C52.8839 70.7294 52.8199 70.0574 52.6599 69.5134C52.2599 68.1694 51.0919 67.3214 49.5559 67.3214C47.9719 67.3214 46.8199 68.1694 46.4039 69.5294C46.2599 70.0414 46.1959 70.6974 46.1959 71.4814C46.1959 72.2494 46.2599 72.9214 46.4199 73.4494C46.8359 74.8254 47.9879 75.6734 49.5559 75.6734ZM49.5559 74.6814C48.4839 74.6814 47.7159 74.0734 47.4759 73.1134C47.3799 72.7614 47.3479 72.1854 47.3479 71.4974C47.3479 70.8254 47.3799 70.2334 47.4759 69.8814C47.7319 68.9374 48.4839 68.3134 49.5239 68.3134C50.5959 68.3134 51.3639 68.9374 51.6039 69.8814C51.6999 70.2334 51.7319 70.7934 51.7319 71.4974C51.7319 72.1374 51.6999 72.7294 51.6039 73.1134C51.3479 74.0734 50.5799 74.6814 49.5559 74.6814ZM61.4743 69.4654C61.0903 68.1694 60.0663 67.3214 58.5463 67.3214C57.6983 67.3214 56.9783 67.6734 56.5143 68.2974C56.4663 68.3454 56.4183 68.3294 56.4183 68.2654V67.6574C56.4183 67.5294 56.3383 67.4494 56.2103 67.4494H55.4903C55.3623 67.4494 55.2823 67.5294 55.2823 67.6574V78.4414C55.2823 78.5694 55.3623 78.6494 55.4903 78.6494H56.2103C56.3383 78.6494 56.4183 78.5694 56.4183 78.4414V74.7454C56.4183 74.6814 56.4663 74.6494 56.5143 74.7134C56.9783 75.3214 57.6983 75.6734 58.5463 75.6734C60.0983 75.6734 61.1223 74.8094 61.5063 73.4814C61.6663 72.9374 61.6983 72.2814 61.6983 71.4974C61.6983 70.6814 61.6503 70.0254 61.4743 69.4654ZM60.1943 73.5134C59.9223 74.2014 59.2823 74.6814 58.4183 74.6814C57.5703 74.6814 56.9943 74.1854 56.7383 73.4814C56.5463 73.0494 56.4503 72.5694 56.4503 71.4974C56.4503 70.4414 56.5303 69.9614 56.7223 69.5454C56.9783 68.8254 57.5543 68.3134 58.4343 68.3134C59.3303 68.3134 60.0183 68.7934 60.2743 69.5614C60.4663 69.9934 60.5623 70.4574 60.5623 71.4974C60.5623 72.6014 60.4343 73.0814 60.1943 73.5134ZM64.6399 65.9934C65.1519 65.9934 65.5039 65.6574 65.5039 65.1614C65.5039 64.6814 65.1519 64.3454 64.6399 64.3454C64.1279 64.3454 63.7759 64.6814 63.7759 65.1614C63.7759 65.6574 64.1279 65.9934 64.6399 65.9934ZM64.2879 75.5454H65.0079C65.1359 75.5454 65.2159 75.4654 65.2159 75.3374V67.6574C65.2159 67.5294 65.1359 67.4494 65.0079 67.4494H64.2879C64.1599 67.4494 64.0799 67.5294 64.0799 67.6574V75.3374C64.0799 75.4654 64.1599 75.5454 64.2879 75.5454ZM70.6738 67.3214C69.0258 67.3214 67.8418 68.1214 67.6338 69.2894C67.6178 69.4014 67.6978 69.4494 67.8258 69.4654L68.6098 69.5614C68.7378 69.5774 68.8178 69.5294 68.8498 69.4014C69.0258 68.7294 69.6818 68.3134 70.6898 68.3134C72.0178 68.3134 72.5618 69.0334 72.5618 70.0734V70.6654C72.5618 70.7134 72.5298 70.7454 72.4818 70.7454H70.6258C68.5458 70.7454 67.3298 71.7374 67.3298 73.3374C67.3298 75.0174 68.6098 75.6734 69.9698 75.6734C70.9778 75.6734 71.8738 75.3534 72.4658 74.7294C72.5138 74.6654 72.5618 74.6974 72.5618 74.7614V75.3374C72.5618 75.4654 72.6418 75.5454 72.7698 75.5454H73.4898C73.6178 75.5454 73.6978 75.4654 73.6978 75.3374V70.0094C73.6978 68.4254 72.6258 67.3214 70.6738 67.3214ZM70.2258 74.6974C69.2498 74.6974 68.4658 74.2494 68.4658 73.2734C68.4658 72.2334 69.4098 71.6414 70.8018 71.6414H72.4818C72.5298 71.6414 72.5618 71.6734 72.5618 71.7214V72.9534C72.5618 74.0734 71.4098 74.6974 70.2258 74.6974ZM79.4056 67.3374C78.4776 67.3374 77.7256 67.6574 77.2616 68.2974C77.2296 68.3614 77.1816 68.3134 77.1816 68.2494V67.6574C77.1816 67.5294 77.1016 67.4494 76.9736 67.4494H76.2536C76.1256 67.4494 76.0456 67.5294 76.0456 67.6574V75.3374C76.0456 75.4654 76.1256 75.5454 76.2536 75.5454H76.9736C77.1016 75.5454 77.1816 75.4654 77.1816 75.3374V70.0094C77.2936 69.0014 78.0616 68.3294 79.1496 68.3294C80.2856 68.3294 81.0536 69.1454 81.0536 70.3294V75.3374C81.0536 75.4654 81.1336 75.5454 81.2616 75.5454H81.9816C82.1096 75.5454 82.1896 75.4654 82.1896 75.3374V70.1054C82.1896 68.4254 81.0856 67.3374 79.4056 67.3374ZM91.2338 67.3374C90.3058 67.3374 89.5538 67.6574 89.0898 68.2974C89.0578 68.3614 89.0098 68.3134 89.0098 68.2494V64.5534C89.0098 64.4254 88.9298 64.3454 88.8018 64.3454H88.0818C87.9538 64.3454 87.8738 64.4254 87.8738 64.5534V75.3374C87.8738 75.4654 87.9538 75.5454 88.0818 75.5454H88.8018C88.9298 75.5454 89.0098 75.4654 89.0098 75.3374V70.0094C89.1218 69.0014 89.8898 68.3294 90.9778 68.3294C92.1138 68.3294 92.8818 69.1454 92.8818 70.3294V75.3374C92.8818 75.4654 92.9618 75.5454 93.0898 75.5454H93.8098C93.9378 75.5454 94.0178 75.4654 94.0178 75.3374V70.1054C94.0178 68.4254 92.9138 67.3374 91.2338 67.3374ZM99.2988 67.3214C97.6508 67.3214 96.4668 68.1214 96.2588 69.2894C96.2428 69.4014 96.3228 69.4494 96.4508 69.4654L97.2348 69.5614C97.3628 69.5774 97.4428 69.5294 97.4748 69.4014C97.6508 68.7294 98.3068 68.3134 99.3148 68.3134C100.643 68.3134 101.187 69.0334 101.187 70.0734V70.6654C101.187 70.7134 101.155 70.7454 101.107 70.7454H99.2508C97.1708 70.7454 95.9548 71.7374 95.9548 73.3374C95.9548 75.0174 97.2348 75.6734 98.5948 75.6734C99.6028 75.6734 100.499 75.3534 101.091 74.7294C101.139 74.6654 101.187 74.6974 101.187 74.7614V75.3374C101.187 75.4654 101.267 75.5454 101.395 75.5454H102.115C102.243 75.5454 102.323 75.4654 102.323 75.3374V70.0094C102.323 68.4254 101.251 67.3214 99.2988 67.3214ZM98.8508 74.6974C97.8748 74.6974 97.0908 74.2494 97.0908 73.2734C97.0908 72.2334 98.0348 71.6414 99.4268 71.6414H101.107C101.155 71.6414 101.187 71.6734 101.187 71.7214V72.9534C101.187 74.0734 100.035 74.6974 98.8508 74.6974ZM108.031 67.3374C107.103 67.3374 106.351 67.6574 105.887 68.2974C105.855 68.3614 105.807 68.3134 105.807 68.2494V67.6574C105.807 67.5294 105.727 67.4494 105.599 67.4494H104.879C104.751 67.4494 104.671 67.5294 104.671 67.6574V75.3374C104.671 75.4654 104.751 75.5454 104.879 75.5454H105.599C105.727 75.5454 105.807 75.4654 105.807 75.3374V70.0094C105.919 69.0014 106.687 68.3294 107.775 68.3294C108.911 68.3294 109.679 69.1454 109.679 70.3294V75.3374C109.679 75.4654 109.759 75.5454 109.887 75.5454H110.607C110.735 75.5454 110.815 75.4654 110.815 75.3374V70.1054C110.815 68.4254 109.711 67.3374 108.031 67.3374ZM118.272 64.5534V68.2494C118.272 68.3134 118.224 68.3454 118.176 68.2814C117.712 67.6734 116.992 67.3214 116.144 67.3214C114.592 67.3214 113.568 68.1854 113.184 69.5134C113.024 70.0574 112.992 70.7134 112.992 71.4974C112.992 72.3134 113.04 72.9694 113.216 73.5294C113.6 74.8254 114.624 75.6734 116.144 75.6734C116.992 75.6734 117.712 75.3214 118.176 74.6974C118.224 74.6494 118.272 74.6654 118.272 74.7294V75.3374C118.272 75.4654 118.352 75.5454 118.48 75.5454H119.2C119.328 75.5454 119.408 75.4654 119.408 75.3374V64.5534C119.408 64.4254 119.328 64.3454 119.2 64.3454H118.48C118.352 64.3454 118.272 64.4254 118.272 64.5534ZM117.968 73.4494C117.712 74.1694 117.136 74.6814 116.256 74.6814C115.36 74.6814 114.672 74.2014 114.416 73.4334C114.224 73.0014 114.128 72.5374 114.128 71.4974C114.128 70.3934 114.256 69.9134 114.496 69.4814C114.768 68.7934 115.408 68.3134 116.272 68.3134C117.12 68.3134 117.696 68.8094 117.952 69.5134C118.144 69.9454 118.24 70.4254 118.24 71.4974C118.24 72.5534 118.16 73.0334 117.968 73.4494ZM121.52 71.0654H126.16C126.288 71.0654 126.368 70.9854 126.368 70.8574V70.2814C126.368 70.1534 126.288 70.0734 126.16 70.0734H121.52C121.392 70.0734 121.312 70.1534 121.312 70.2814V70.8574C121.312 70.9854 121.392 71.0654 121.52 71.0654ZM131.624 67.3374C130.696 67.3374 129.944 67.6574 129.48 68.2974C129.448 68.3614 129.4 68.3134 129.4 68.2494V64.5534C129.4 64.4254 129.32 64.3454 129.192 64.3454H128.472C128.344 64.3454 128.264 64.4254 128.264 64.5534V75.3374C128.264 75.4654 128.344 75.5454 128.472 75.5454H129.192C129.32 75.5454 129.4 75.4654 129.4 75.3374V70.0094C129.512 69.0014 130.28 68.3294 131.368 68.3294C132.504 68.3294 133.272 69.1454 133.272 70.3294V75.3374C133.272 75.4654 133.352 75.5454 133.48 75.5454H134.2C134.328 75.5454 134.408 75.4654 134.408 75.3374V70.1054C134.408 68.4254 133.304 67.3374 131.624 67.3374ZM139.689 67.3214C138.041 67.3214 136.857 68.1214 136.649 69.2894C136.633 69.4014 136.713 69.4494 136.841 69.4654L137.625 69.5614C137.753 69.5774 137.833 69.5294 137.865 69.4014C138.041 68.7294 138.697 68.3134 139.705 68.3134C141.033 68.3134 141.577 69.0334 141.577 70.0734V70.6654C141.577 70.7134 141.545 70.7454 141.497 70.7454H139.641C137.561 70.7454 136.345 71.7374 136.345 73.3374C136.345 75.0174 137.625 75.6734 138.985 75.6734C139.993 75.6734 140.889 75.3534 141.481 74.7294C141.529 74.6654 141.577 74.6974 141.577 74.7614V75.3374C141.577 75.4654 141.657 75.5454 141.785 75.5454H142.505C142.633 75.5454 142.713 75.4654 142.713 75.3374V70.0094C142.713 68.4254 141.641 67.3214 139.689 67.3214ZM139.241 74.6974C138.265 74.6974 137.481 74.2494 137.481 73.2734C137.481 72.2334 138.425 71.6414 139.817 71.6414H141.497C141.545 71.6414 141.577 71.6734 141.577 71.7214V72.9534C141.577 74.0734 140.425 74.6974 139.241 74.6974ZM148.325 67.3694C147.397 67.3694 146.709 67.8494 146.277 68.5854C146.245 68.6494 146.197 68.6334 146.197 68.5534V67.6574C146.197 67.5294 146.117 67.4494 145.989 67.4494H145.269C145.141 67.4494 145.061 67.5294 145.061 67.6574V75.3374C145.061 75.4654 145.141 75.5454 145.269 75.5454H145.989C146.117 75.5454 146.197 75.4654 146.197 75.3374V70.6654C146.197 69.4654 147.013 68.6014 148.117 68.5694C148.453 68.5534 148.709 68.5854 148.901 68.6494C149.045 68.6974 149.125 68.6494 149.157 68.5214L149.317 67.8174C149.349 67.7054 149.317 67.6094 149.205 67.5614C148.997 67.4494 148.725 67.3694 148.325 67.3694ZM153.439 75.5454H154.303C154.415 75.5454 154.511 75.4814 154.543 75.3694L157.119 67.7054C157.167 67.5614 157.103 67.4654 156.959 67.4654L156.143 67.4494C156.031 67.4494 155.951 67.4974 155.919 67.6254L153.919 73.8494C153.903 73.9294 153.839 73.9294 153.823 73.8494L151.823 67.6254C151.791 67.4974 151.711 67.4494 151.599 67.4494H150.783C150.639 67.4494 150.559 67.5454 150.607 67.6894L153.199 75.3694C153.231 75.4814 153.327 75.5454 153.439 75.5454ZM161.823 74.6974C160.655 74.6974 159.871 74.0574 159.647 73.1294C159.583 72.8894 159.551 72.4894 159.551 71.9614C159.551 71.9134 159.583 71.8814 159.631 71.8814H164.751C164.879 71.8814 164.959 71.8014 164.959 71.6734C164.959 70.9214 164.943 70.5054 164.863 70.0734C164.575 68.3934 163.567 67.3214 161.663 67.3214C160.079 67.3214 158.927 68.2334 158.575 69.6094C158.447 70.1054 158.431 70.6494 158.431 71.4654C158.431 72.3614 158.511 73.0814 158.735 73.6734C159.167 74.9054 160.207 75.6734 161.727 75.6734C163.167 75.6734 164.207 74.9694 164.703 73.9294C164.767 73.8174 164.719 73.7214 164.607 73.6574L164.143 73.4014C164.031 73.3374 163.919 73.3854 163.871 73.4974C163.503 74.2174 162.815 74.6814 161.823 74.6974ZM161.663 68.3134C162.767 68.3134 163.503 68.9534 163.727 69.8814C163.775 70.1054 163.807 70.4734 163.823 70.9054C163.823 70.9534 163.791 70.9854 163.743 70.9854H159.631C159.583 70.9854 159.551 70.9534 159.551 70.9054C159.567 70.4414 159.599 70.0734 159.679 69.8174C159.887 68.9374 160.575 68.3134 161.663 68.3134ZM169.874 75.6254C171.682 75.6254 172.85 74.7134 172.85 73.3374C172.85 71.7534 171.298 71.3214 169.938 70.9374C168.85 70.6174 167.986 70.3294 167.986 69.5294C167.986 68.7614 168.722 68.2974 169.794 68.2974C170.994 68.2974 171.714 68.8734 171.714 69.5774V69.6734C171.714 69.7374 171.794 69.7854 171.922 69.7854H172.578C172.706 69.7854 172.786 69.7054 172.786 69.5774C172.786 68.3134 171.602 67.3694 169.81 67.3694C168.082 67.3694 166.882 68.2334 166.882 69.6094C166.882 71.1294 168.354 71.5934 169.73 71.9934C170.786 72.3134 171.714 72.5534 171.714 73.4174C171.714 74.1694 170.978 74.7454 169.858 74.7454C168.706 74.7454 167.938 74.1054 167.938 73.4334V73.2894C167.938 73.2094 167.858 73.1454 167.73 73.1454H167.042C166.914 73.1454 166.834 73.2254 166.834 73.3534V73.4974C166.834 74.6654 168.034 75.6254 169.874 75.6254ZM178.553 68.1854V67.6574C178.553 67.5294 178.473 67.4494 178.345 67.4494H176.601C176.553 67.4494 176.521 67.4174 176.521 67.3694V65.5774C176.521 65.4494 176.441 65.3694 176.313 65.3694H175.625C175.497 65.3694 175.417 65.4494 175.417 65.5774V67.3694C175.417 67.4174 175.385 67.4494 175.337 67.4494H174.425C174.297 67.4494 174.217 67.5294 174.217 67.6574V68.1854C174.217 68.3134 174.297 68.3934 174.425 68.3934H175.337C175.385 68.3934 175.417 68.4254 175.417 68.4734V73.4974C175.417 75.1614 176.361 75.5294 177.753 75.5294H178.297C178.441 75.5134 178.505 75.4334 178.505 75.3054V74.7454C178.505 74.6174 178.425 74.5374 178.297 74.5374H177.945C176.985 74.5374 176.521 74.1854 176.521 73.1454V68.4734C176.521 68.4254 176.553 68.3934 176.601 68.3934H178.345C178.473 68.3934 178.553 68.3134 178.553 68.1854ZM183.666 74.6974C182.498 74.6974 181.714 74.0574 181.49 73.1294C181.426 72.8894 181.394 72.4894 181.394 71.9614C181.394 71.9134 181.426 71.8814 181.474 71.8814H186.594C186.722 71.8814 186.802 71.8014 186.802 71.6734C186.802 70.9214 186.786 70.5054 186.706 70.0734C186.418 68.3934 185.41 67.3214 183.506 67.3214C181.922 67.3214 180.77 68.2334 180.418 69.6094C180.29 70.1054 180.274 70.6494 180.274 71.4654C180.274 72.3614 180.354 73.0814 180.578 73.6734C181.01 74.9054 182.05 75.6734 183.57 75.6734C185.01 75.6734 186.05 74.9694 186.546 73.9294C186.61 73.8174 186.562 73.7214 186.45 73.6574L185.986 73.4014C185.874 73.3374 185.762 73.3854 185.714 73.4974C185.346 74.2174 184.658 74.6814 183.666 74.6974ZM183.506 68.3134C184.61 68.3134 185.346 68.9534 185.57 69.8814C185.618 70.1054 185.65 70.4734 185.666 70.9054C185.666 70.9534 185.634 70.9854 185.586 70.9854H181.474C181.426 70.9854 181.394 70.9534 181.394 70.9054C181.41 70.4414 181.442 70.0734 181.522 69.8174C181.73 68.9374 182.418 68.3134 183.506 68.3134ZM194.037 64.5534V68.2494C194.037 68.3134 193.989 68.3454 193.941 68.2814C193.477 67.6734 192.757 67.3214 191.909 67.3214C190.357 67.3214 189.333 68.1854 188.949 69.5134C188.789 70.0574 188.757 70.7134 188.757 71.4974C188.757 72.3134 188.805 72.9694 188.981 73.5294C189.365 74.8254 190.389 75.6734 191.909 75.6734C192.757 75.6734 193.477 75.3214 193.941 74.6974C193.989 74.6494 194.037 74.6654 194.037 74.7294V75.3374C194.037 75.4654 194.117 75.5454 194.245 75.5454H194.965C195.093 75.5454 195.173 75.4654 195.173 75.3374V64.5534C195.173 64.4254 195.093 64.3454 194.965 64.3454H194.245C194.117 64.3454 194.037 64.4254 194.037 64.5534ZM193.733 73.4494C193.477 74.1694 192.901 74.6814 192.021 74.6814C191.125 74.6814 190.437 74.2014 190.181 73.4334C189.989 73.0014 189.893 72.5374 189.893 71.4974C189.893 70.3934 190.021 69.9134 190.261 69.4814C190.533 68.7934 191.173 68.3134 192.037 68.3134C192.885 68.3134 193.461 68.8094 193.717 69.5134C193.909 69.9454 194.005 70.4254 194.005 71.4974C194.005 72.5534 193.925 73.0334 193.733 73.4494ZM207.16 69.5134C206.776 68.1854 205.752 67.3214 204.2 67.3214C203.352 67.3214 202.632 67.6734 202.168 68.2814C202.12 68.3454 202.072 68.3134 202.072 68.2494V64.5534C202.072 64.4254 201.992 64.3454 201.864 64.3454H201.144C201.016 64.3454 200.936 64.4254 200.936 64.5534V75.3374C200.936 75.4654 201.016 75.5454 201.144 75.5454H201.864C201.992 75.5454 202.072 75.4654 202.072 75.3374V74.7294C202.072 74.6654 202.12 74.6494 202.168 74.6974C202.632 75.3214 203.352 75.6734 204.2 75.6734C205.72 75.6734 206.744 74.8254 207.128 73.5294C207.304 72.9694 207.352 72.3134 207.352 71.4974C207.352 70.7134 207.32 70.0574 207.16 69.5134ZM205.928 73.4334C205.672 74.2014 204.984 74.6814 204.088 74.6814C203.208 74.6814 202.632 74.1694 202.376 73.4494C202.184 73.0334 202.104 72.5534 202.104 71.4974C202.104 70.4254 202.2 69.9454 202.392 69.5134C202.648 68.8094 203.224 68.3134 204.072 68.3134C204.936 68.3134 205.576 68.7934 205.848 69.4814C206.088 69.9134 206.216 70.3934 206.216 71.4974C206.216 72.5374 206.12 73.0014 205.928 73.4334ZM209.816 75.5454H210.536C210.664 75.5454 210.744 75.4654 210.744 75.3374V64.5534C210.744 64.4254 210.664 64.3454 210.536 64.3454H209.816C209.688 64.3454 209.608 64.4254 209.608 64.5534V75.3374C209.608 75.4654 209.688 75.5454 209.816 75.5454ZM216.479 74.6974C215.311 74.6974 214.527 74.0574 214.303 73.1294C214.239 72.8894 214.207 72.4894 214.207 71.9614C214.207 71.9134 214.239 71.8814 214.287 71.8814H219.407C219.535 71.8814 219.615 71.8014 219.615 71.6734C219.615 70.9214 219.599 70.5054 219.519 70.0734C219.231 68.3934 218.223 67.3214 216.319 67.3214C214.735 67.3214 213.583 68.2334 213.231 69.6094C213.103 70.1054 213.087 70.6494 213.087 71.4654C213.087 72.3614 213.167 73.0814 213.391 73.6734C213.823 74.9054 214.863 75.6734 216.383 75.6734C217.823 75.6734 218.863 74.9694 219.359 73.9294C219.423 73.8174 219.375 73.7214 219.263 73.6574L218.799 73.4014C218.687 73.3374 218.575 73.3854 218.527 73.4974C218.159 74.2174 217.471 74.6814 216.479 74.6974ZM216.319 68.3134C217.423 68.3134 218.159 68.9534 218.383 69.8814C218.431 70.1054 218.463 70.4734 218.479 70.9054C218.479 70.9534 218.447 70.9854 218.399 70.9854H214.287C214.239 70.9854 214.207 70.9534 214.207 70.9054C214.223 70.4414 214.255 70.0734 214.335 69.8174C214.543 68.9374 215.231 68.3134 216.319 68.3134ZM225.234 67.3374C224.306 67.3374 223.554 67.6574 223.09 68.2974C223.058 68.3614 223.01 68.3134 223.01 68.2494V67.6574C223.01 67.5294 222.93 67.4494 222.802 67.4494H222.082C221.954 67.4494 221.874 67.5294 221.874 67.6574V75.3374C221.874 75.4654 221.954 75.5454 222.082 75.5454H222.802C222.93 75.5454 223.01 75.4654 223.01 75.3374V70.0094C223.122 69.0014 223.89 68.3294 224.978 68.3294C226.114 68.3294 226.882 69.1454 226.882 70.3294V75.3374C226.882 75.4654 226.962 75.5454 227.09 75.5454H227.81C227.938 75.5454 228.018 75.4654 228.018 75.3374V70.1054C228.018 68.4254 226.914 67.3374 225.234 67.3374ZM235.475 64.5534V68.2494C235.475 68.3134 235.427 68.3454 235.379 68.2814C234.915 67.6734 234.195 67.3214 233.347 67.3214C231.795 67.3214 230.771 68.1854 230.387 69.5134C230.227 70.0574 230.195 70.7134 230.195 71.4974C230.195 72.3134 230.243 72.9694 230.419 73.5294C230.803 74.8254 231.827 75.6734 233.347 75.6734C234.195 75.6734 234.915 75.3214 235.379 74.6974C235.427 74.6494 235.475 74.6654 235.475 74.7294V75.3374C235.475 75.4654 235.555 75.5454 235.683 75.5454H236.403C236.531 75.5454 236.611 75.4654 236.611 75.3374V64.5534C236.611 64.4254 236.531 64.3454 236.403 64.3454H235.683C235.555 64.3454 235.475 64.4254 235.475 64.5534ZM235.171 73.4494C234.915 74.1694 234.339 74.6814 233.459 74.6814C232.563 74.6814 231.875 74.2014 231.619 73.4334C231.427 73.0014 231.331 72.5374 231.331 71.4974C231.331 70.3934 231.459 69.9134 231.699 69.4814C231.971 68.7934 232.611 68.3134 233.475 68.3134C234.323 68.3134 234.899 68.8094 235.155 69.5134C235.347 69.9454 235.443 70.4254 235.443 71.4974C235.443 72.5534 235.363 73.0334 235.171 73.4494ZM21.4669 90.5534V94.2494C21.4669 94.3134 21.4189 94.3454 21.3709 94.2814C20.9069 93.6734 20.1869 93.3214 19.3389 93.3214C17.7869 93.3214 16.7629 94.1854 16.3789 95.5134C16.2189 96.0574 16.1869 96.7134 16.1869 97.4974C16.1869 98.3134 16.2349 98.9694 16.4109 99.5294C16.7949 100.825 17.8189 101.673 19.3389 101.673C20.1869 101.673 20.9069 101.321 21.3709 100.697C21.4189 100.649 21.4669 100.665 21.4669 100.729V101.337C21.4669 101.465 21.5469 101.545 21.6749 101.545H22.3949C22.5229 101.545 22.6029 101.465 22.6029 101.337V90.5534C22.6029 90.4254 22.5229 90.3454 22.3949 90.3454H21.6749C21.5469 90.3454 21.4669 90.4254 21.4669 90.5534ZM21.1629 99.4494C20.9069 100.169 20.3309 100.681 19.4509 100.681C18.5549 100.681 17.8669 100.201 17.6109 99.4334C17.4189 99.0014 17.3229 98.5374 17.3229 97.4974C17.3229 96.3934 17.4509 95.9134 17.6909 95.4814C17.9629 94.7934 18.6029 94.3134 19.4669 94.3134C20.3149 94.3134 20.8909 94.8094 21.1469 95.5134C21.3389 95.9454 21.4349 96.4254 21.4349 97.4974C21.4349 98.5534 21.3549 99.0334 21.1629 99.4494ZM28.3148 100.697C27.1468 100.697 26.3628 100.057 26.1388 99.1294C26.0748 98.8894 26.0428 98.4894 26.0428 97.9614C26.0428 97.9134 26.0748 97.8814 26.1228 97.8814H31.2428C31.3708 97.8814 31.4508 97.8014 31.4508 97.6734C31.4508 96.9214 31.4348 96.5054 31.3548 96.0734C31.0668 94.3934 30.0588 93.3214 28.1548 93.3214C26.5708 93.3214 25.4188 94.2334 25.0668 95.6094C24.9388 96.1054 24.9228 96.6494 24.9228 97.4654C24.9228 98.3614 25.0028 99.0814 25.2268 99.6734C25.6588 100.905 26.6988 101.673 28.2188 101.673C29.6588 101.673 30.6988 100.969 31.1948 99.9294C31.2588 99.8174 31.2108 99.7214 31.0988 99.6574L30.6348 99.4014C30.5228 99.3374 30.4108 99.3854 30.3628 99.4974C29.9948 100.217 29.3068 100.681 28.3148 100.697ZM28.1548 94.3134C29.2588 94.3134 29.9948 94.9534 30.2188 95.8814C30.2668 96.1054 30.2988 96.4734 30.3148 96.9054C30.3148 96.9534 30.2828 96.9854 30.2348 96.9854H26.1228C26.0748 96.9854 26.0428 96.9534 26.0428 96.9054C26.0588 96.4414 26.0908 96.0734 26.1708 95.8174C26.3788 94.9374 27.0668 94.3134 28.1548 94.3134ZM37.0697 93.3374C36.1417 93.3374 35.3897 93.6574 34.9257 94.2974C34.8937 94.3614 34.8457 94.3134 34.8457 94.2494V93.6574C34.8457 93.5294 34.7657 93.4494 34.6377 93.4494H33.9177C33.7897 93.4494 33.7097 93.5294 33.7097 93.6574V101.337C33.7097 101.465 33.7897 101.545 33.9177 101.545H34.6377C34.7657 101.545 34.8457 101.465 34.8457 101.337V96.0094C34.9577 95.0014 35.7257 94.3294 36.8137 94.3294C37.9497 94.3294 38.7177 95.1454 38.7177 96.3294V101.337C38.7177 101.465 38.7977 101.545 38.9257 101.545H39.6457C39.7737 101.545 39.8537 101.465 39.8537 101.337V96.1054C39.8537 94.4254 38.7497 93.3374 37.0697 93.3374ZM44.9907 101.625C46.7987 101.625 47.9667 100.713 47.9667 99.3374C47.9667 97.7534 46.4147 97.3214 45.0547 96.9374C43.9667 96.6174 43.1027 96.3294 43.1027 95.5294C43.1027 94.7614 43.8387 94.2974 44.9107 94.2974C46.1107 94.2974 46.8307 94.8734 46.8307 95.5774V95.6734C46.8307 95.7374 46.9107 95.7854 47.0387 95.7854H47.6947C47.8227 95.7854 47.9027 95.7054 47.9027 95.5774C47.9027 94.3134 46.7187 93.3694 44.9267 93.3694C43.1987 93.3694 41.9987 94.2334 41.9987 95.6094C41.9987 97.1294 43.4707 97.5934 44.8467 97.9934C45.9027 98.3134 46.8307 98.5534 46.8307 99.4174C46.8307 100.169 46.0947 100.745 44.9747 100.745C43.8227 100.745 43.0547 100.105 43.0547 99.4334V99.2894C43.0547 99.2094 42.9747 99.1454 42.8467 99.1454H42.1587C42.0307 99.1454 41.9507 99.2254 41.9507 99.3534V99.4974C41.9507 100.665 43.1507 101.625 44.9907 101.625ZM53.2054 100.697C52.0374 100.697 51.2534 100.057 51.0294 99.1294C50.9654 98.8894 50.9334 98.4894 50.9334 97.9614C50.9334 97.9134 50.9654 97.8814 51.0134 97.8814H56.1334C56.2614 97.8814 56.3414 97.8014 56.3414 97.6734C56.3414 96.9214 56.3254 96.5054 56.2454 96.0734C55.9574 94.3934 54.9494 93.3214 53.0454 93.3214C51.4614 93.3214 50.3094 94.2334 49.9574 95.6094C49.8294 96.1054 49.8134 96.6494 49.8134 97.4654C49.8134 98.3614 49.8934 99.0814 50.1174 99.6734C50.5494 100.905 51.5894 101.673 53.1094 101.673C54.5494 101.673 55.5894 100.969 56.0854 99.9294C56.1494 99.8174 56.1014 99.7214 55.9894 99.6574L55.5254 99.4014C55.4134 99.3374 55.3014 99.3854 55.2534 99.4974C54.8854 100.217 54.1974 100.681 53.2054 100.697ZM53.0454 94.3134C54.1494 94.3134 54.8854 94.9534 55.1094 95.8814C55.1574 96.1054 55.1894 96.4734 55.2054 96.9054C55.2054 96.9534 55.1734 96.9854 55.1254 96.9854H51.0134C50.9654 96.9854 50.9334 96.9534 50.9334 96.9054C50.9494 96.4414 50.9814 96.0734 51.0614 95.8174C51.2694 94.9374 51.9574 94.3134 53.0454 94.3134ZM58.8083 101.545H59.5283C59.6563 101.545 59.7363 101.465 59.7363 101.337V90.5534C59.7363 90.4254 59.6563 90.3454 59.5283 90.3454H58.8083C58.6803 90.3454 58.6003 90.4254 58.6003 90.5534V101.337C58.6003 101.465 58.6803 101.545 58.8083 101.545ZM61.9511 104.745H62.0631C63.8391 104.745 64.3191 104.297 65.0391 102.249L67.9831 93.6894C68.0311 93.5454 67.9511 93.4494 67.8071 93.4494H67.0391C66.9271 93.4494 66.8471 93.4974 66.8151 93.6254L64.7991 99.8974C64.7831 99.9774 64.7191 99.9774 64.7031 99.8974L62.6391 93.6254C62.6071 93.5134 62.5111 93.4494 62.3991 93.4494H61.6471C61.5031 93.4494 61.4231 93.5454 61.4711 93.6894L64.1591 101.497C64.1751 101.545 64.1751 101.561 64.1591 101.593C63.6151 103.385 63.2631 103.769 62.0631 103.769H61.9511C61.8871 103.769 61.8391 103.849 61.8391 103.977V104.537C61.8391 104.665 61.8871 104.745 61.9511 104.745ZM79.1852 95.4654C78.8012 94.1694 77.7772 93.3214 76.2572 93.3214C75.4092 93.3214 74.6892 93.6734 74.2252 94.2974C74.1772 94.3454 74.1292 94.3294 74.1292 94.2654V93.6574C74.1292 93.5294 74.0492 93.4494 73.9212 93.4494H73.2012C73.0732 93.4494 72.9932 93.5294 72.9932 93.6574V104.441C72.9932 104.569 73.0732 104.649 73.2012 104.649H73.9212C74.0492 104.649 74.1292 104.569 74.1292 104.441V100.745C74.1292 100.681 74.1772 100.649 74.2252 100.713C74.6892 101.321 75.4092 101.673 76.2572 101.673C77.8092 101.673 78.8332 100.809 79.2172 99.4814C79.3772 98.9374 79.4092 98.2814 79.4092 97.4974C79.4092 96.6814 79.3612 96.0254 79.1852 95.4654ZM77.9052 99.5134C77.6332 100.201 76.9932 100.681 76.1292 100.681C75.2812 100.681 74.7052 100.185 74.4492 99.4814C74.2572 99.0494 74.1612 98.5694 74.1612 97.4974C74.1612 96.4414 74.2412 95.9614 74.4332 95.5454C74.6892 94.8254 75.2652 94.3134 76.1452 94.3134C77.0412 94.3134 77.7292 94.7934 77.9852 95.5614C78.1772 95.9934 78.2732 96.4574 78.2732 97.4974C78.2732 98.6014 78.1452 99.0814 77.9052 99.5134ZM84.4628 93.3214C82.8148 93.3214 81.6308 94.1214 81.4228 95.2894C81.4068 95.4014 81.4868 95.4494 81.6148 95.4654L82.3988 95.5614C82.5268 95.5774 82.6068 95.5294 82.6388 95.4014C82.8148 94.7294 83.4708 94.3134 84.4788 94.3134C85.8068 94.3134 86.3508 95.0334 86.3508 96.0734V96.6654C86.3508 96.7134 86.3188 96.7454 86.2708 96.7454H84.4148C82.3348 96.7454 81.1188 97.7374 81.1188 99.3374C81.1188 101.017 82.3988 101.673 83.7588 101.673C84.7668 101.673 85.6628 101.353 86.2548 100.729C86.3028 100.665 86.3508 100.697 86.3508 100.761V101.337C86.3508 101.465 86.4308 101.545 86.5588 101.545H87.2788C87.4068 101.545 87.4868 101.465 87.4868 101.337V96.0094C87.4868 94.4254 86.4148 93.3214 84.4628 93.3214ZM84.0148 100.697C83.0388 100.697 82.2548 100.249 82.2548 99.2734C82.2548 98.2334 83.1988 97.6414 84.5908 97.6414H86.2708C86.3188 97.6414 86.3508 97.6734 86.3508 97.7214V98.9534C86.3508 100.073 85.1988 100.697 84.0148 100.697ZM92.8907 101.673C94.4587 101.673 95.7067 100.825 96.0267 99.5934C96.0587 99.4814 96.0747 99.3854 96.0907 99.3214C96.1067 99.1774 96.0267 99.0974 95.8987 99.0814L95.2107 98.9694C95.0827 98.9534 94.9867 99.0014 94.9707 99.1454L94.9547 99.1614C94.9547 99.1774 94.9547 99.2094 94.9387 99.2414C94.7627 100.057 93.9627 100.681 92.8907 100.681C91.8027 100.681 91.0667 100.041 90.8587 99.1134C90.7787 98.7934 90.7147 98.2654 90.7147 97.4814C90.7147 96.7614 90.7787 96.2014 90.8587 95.8654C91.0667 94.9534 91.8027 94.3134 92.8907 94.3134C93.9947 94.3134 94.7787 94.9854 94.9547 95.7694C94.9707 95.8334 94.9867 95.8974 94.9867 95.9614C95.0187 96.1054 95.0987 96.1534 95.2267 96.1374L95.9307 96.0574C96.0587 96.0414 96.1387 95.9614 96.1227 95.8174C96.1067 95.7054 96.0747 95.5454 96.0267 95.3854C95.7067 94.2494 94.5067 93.3214 92.8907 93.3214C91.3387 93.3214 90.1707 94.2014 89.7867 95.5134C89.6587 96.0094 89.5787 96.5854 89.5787 97.4654C89.5787 98.2814 89.6267 98.9054 89.7867 99.4494C90.1867 100.793 91.3227 101.673 92.8907 101.673ZM98.3552 101.545H99.0752C99.2032 101.545 99.2832 101.465 99.2832 101.337V98.6814C99.2832 98.6494 99.2992 98.6014 99.3152 98.5694L101.059 96.7454C101.091 96.7134 101.155 96.7134 101.171 96.7614L103.203 101.385C103.251 101.481 103.331 101.545 103.443 101.545H104.195C104.355 101.545 104.419 101.449 104.355 101.305L101.955 96.0094C101.939 95.9774 101.939 95.9294 101.971 95.8974L103.955 93.7054C104.067 93.5774 104.003 93.4494 103.827 93.4494H102.979C102.883 93.4494 102.787 93.4814 102.723 93.5614L99.3792 97.0654C99.3312 97.1294 99.2832 97.0814 99.2832 97.0174V90.5534C99.2832 90.4254 99.2032 90.3454 99.0752 90.3454H98.3552C98.2272 90.3454 98.1472 90.4254 98.1472 90.5534V101.337C98.1472 101.465 98.2272 101.545 98.3552 101.545ZM109.018 100.697C107.85 100.697 107.066 100.057 106.842 99.1294C106.778 98.8894 106.746 98.4894 106.746 97.9614C106.746 97.9134 106.778 97.8814 106.826 97.8814H111.946C112.074 97.8814 112.154 97.8014 112.154 97.6734C112.154 96.9214 112.138 96.5054 112.058 96.0734C111.77 94.3934 110.762 93.3214 108.858 93.3214C107.274 93.3214 106.122 94.2334 105.77 95.6094C105.642 96.1054 105.626 96.6494 105.626 97.4654C105.626 98.3614 105.706 99.0814 105.93 99.6734C106.362 100.905 107.402 101.673 108.922 101.673C110.362 101.673 111.402 100.969 111.898 99.9294C111.962 99.8174 111.914 99.7214 111.802 99.6574L111.338 99.4014C111.226 99.3374 111.114 99.3854 111.066 99.4974C110.698 100.217 110.01 100.681 109.018 100.697ZM108.858 94.3134C109.962 94.3134 110.698 94.9534 110.922 95.8814C110.97 96.1054 111.002 96.4734 111.018 96.9054C111.018 96.9534 110.986 96.9854 110.938 96.9854H106.826C106.778 96.9854 106.746 96.9534 106.746 96.9054C106.762 96.4414 106.794 96.0734 106.874 95.8174C107.082 94.9374 107.77 94.3134 108.858 94.3134ZM119.389 90.5534V94.2494C119.389 94.3134 119.341 94.3454 119.293 94.2814C118.829 93.6734 118.109 93.3214 117.261 93.3214C115.709 93.3214 114.685 94.1854 114.301 95.5134C114.141 96.0574 114.109 96.7134 114.109 97.4974C114.109 98.3134 114.157 98.9694 114.333 99.5294C114.717 100.825 115.741 101.673 117.261 101.673C118.109 101.673 118.829 101.321 119.293 100.697C119.341 100.649 119.389 100.665 119.389 100.729V101.337C119.389 101.465 119.469 101.545 119.597 101.545H120.317C120.445 101.545 120.525 101.465 120.525 101.337V90.5534C120.525 90.4254 120.445 90.3454 120.317 90.3454H119.597C119.469 90.3454 119.389 90.4254 119.389 90.5534ZM119.085 99.4494C118.829 100.169 118.253 100.681 117.373 100.681C116.477 100.681 115.789 100.201 115.533 99.4334C115.341 99.0014 115.245 98.5374 115.245 97.4974C115.245 96.3934 115.373 95.9134 115.613 95.4814C115.885 94.7934 116.525 94.3134 117.389 94.3134C118.237 94.3134 118.813 94.8094 119.069 95.5134C119.261 95.9454 119.357 96.4254 119.357 97.4974C119.357 98.5534 119.277 99.0334 119.085 99.4494ZM128 101.545H128.8C128.912 101.545 128.992 101.497 129.024 101.369L130.688 95.4654C130.704 95.4014 130.768 95.4014 130.784 95.4654L132.512 101.369C132.544 101.497 132.624 101.545 132.736 101.545H133.52C133.632 101.545 133.712 101.497 133.744 101.369L136.016 93.7054C136.064 93.5614 135.984 93.4654 135.84 93.4654L135.104 93.4494C134.992 93.4494 134.896 93.4974 134.864 93.6254L133.152 99.8654C133.136 99.9294 133.072 99.9294 133.056 99.8654L131.312 93.6254C131.28 93.4974 131.2 93.4494 131.088 93.4494H130.384C130.272 93.4494 130.192 93.4974 130.16 93.6254L128.448 99.8654C128.432 99.9294 128.368 99.9294 128.352 99.8654L126.688 93.6254C126.656 93.4974 126.576 93.4494 126.464 93.4494H125.712C125.568 93.4494 125.488 93.5454 125.536 93.6894L127.776 101.369C127.808 101.497 127.888 101.545 128 101.545ZM138.507 91.9934C139.019 91.9934 139.371 91.6574 139.371 91.1614C139.371 90.6814 139.019 90.3454 138.507 90.3454C137.995 90.3454 137.643 90.6814 137.643 91.1614C137.643 91.6574 137.995 91.9934 138.507 91.9934ZM138.155 101.545H138.875C139.003 101.545 139.083 101.465 139.083 101.337V93.6574C139.083 93.5294 139.003 93.4494 138.875 93.4494H138.155C138.027 93.4494 137.947 93.5294 137.947 93.6574V101.337C137.947 101.465 138.027 101.545 138.155 101.545ZM145.373 94.1854V93.6574C145.373 93.5294 145.293 93.4494 145.165 93.4494H143.421C143.373 93.4494 143.341 93.4174 143.341 93.3694V91.5774C143.341 91.4494 143.261 91.3694 143.133 91.3694H142.445C142.317 91.3694 142.237 91.4494 142.237 91.5774V93.3694C142.237 93.4174 142.205 93.4494 142.157 93.4494H141.245C141.117 93.4494 141.037 93.5294 141.037 93.6574V94.1854C141.037 94.3134 141.117 94.3934 141.245 94.3934H142.157C142.205 94.3934 142.237 94.4254 142.237 94.4734V99.4974C142.237 101.161 143.181 101.529 144.573 101.529H145.117C145.261 101.513 145.325 101.433 145.325 101.305V100.745C145.325 100.617 145.245 100.537 145.117 100.537H144.765C143.805 100.537 143.341 100.185 143.341 99.1454V94.4734C143.341 94.4254 143.373 94.3934 143.421 94.3934H145.165C145.293 94.3934 145.373 94.3134 145.373 94.1854ZM150.929 93.3374C150.001 93.3374 149.249 93.6574 148.785 94.2974C148.753 94.3614 148.705 94.3134 148.705 94.2494V90.5534C148.705 90.4254 148.625 90.3454 148.497 90.3454H147.777C147.649 90.3454 147.569 90.4254 147.569 90.5534V101.337C147.569 101.465 147.649 101.545 147.777 101.545H148.497C148.625 101.545 148.705 101.465 148.705 101.337V96.0094C148.817 95.0014 149.585 94.3294 150.673 94.3294C151.809 94.3294 152.577 95.1454 152.577 96.3294V101.337C152.577 101.465 152.657 101.545 152.785 101.545H153.505C153.633 101.545 153.713 101.465 153.713 101.337V96.1054C153.713 94.4254 152.609 93.3374 150.929 93.3374ZM161.493 101.545H162.357C162.469 101.545 162.565 101.481 162.597 101.369L165.173 93.7054C165.221 93.5614 165.157 93.4654 165.013 93.4654L164.197 93.4494C164.085 93.4494 164.005 93.4974 163.973 93.6254L161.973 99.8494C161.957 99.9294 161.893 99.9294 161.877 99.8494L159.877 93.6254C159.845 93.4974 159.765 93.4494 159.653 93.4494H158.837C158.693 93.4494 158.613 93.5454 158.661 93.6894L161.253 101.369C161.285 101.481 161.381 101.545 161.493 101.545ZM167.679 91.9934C168.191 91.9934 168.543 91.6574 168.543 91.1614C168.543 90.6814 168.191 90.3454 167.679 90.3454C167.167 90.3454 166.815 90.6814 166.815 91.1614C166.815 91.6574 167.167 91.9934 167.679 91.9934ZM167.327 101.545H168.047C168.175 101.545 168.255 101.465 168.255 101.337V93.6574C168.255 93.5294 168.175 93.4494 168.047 93.4494H167.327C167.199 93.4494 167.119 93.5294 167.119 93.6574V101.337C167.119 101.465 167.199 101.545 167.327 101.545ZM177.137 95.5134C176.753 94.1854 175.729 93.3214 174.177 93.3214C173.329 93.3214 172.609 93.6734 172.145 94.2814C172.097 94.3454 172.049 94.3134 172.049 94.2494V90.5534C172.049 90.4254 171.969 90.3454 171.841 90.3454H171.121C170.993 90.3454 170.913 90.4254 170.913 90.5534V101.337C170.913 101.465 170.993 101.545 171.121 101.545H171.841C171.969 101.545 172.049 101.465 172.049 101.337V100.729C172.049 100.665 172.097 100.649 172.145 100.697C172.609 101.321 173.329 101.673 174.177 101.673C175.697 101.673 176.721 100.825 177.105 99.5294C177.281 98.9694 177.329 98.3134 177.329 97.4974C177.329 96.7134 177.297 96.0574 177.137 95.5134ZM175.905 99.4334C175.649 100.201 174.961 100.681 174.065 100.681C173.185 100.681 172.609 100.169 172.353 99.4494C172.161 99.0334 172.081 98.5534 172.081 97.4974C172.081 96.4254 172.177 95.9454 172.369 95.5134C172.625 94.8094 173.201 94.3134 174.049 94.3134C174.913 94.3134 175.553 94.7934 175.825 95.4814C176.065 95.9134 176.193 96.3934 176.193 97.4974C176.193 98.5374 176.097 99.0014 175.905 99.4334ZM182.849 93.3694C181.921 93.3694 181.233 93.8494 180.801 94.5854C180.769 94.6494 180.721 94.6334 180.721 94.5534V93.6574C180.721 93.5294 180.641 93.4494 180.513 93.4494H179.793C179.665 93.4494 179.585 93.5294 179.585 93.6574V101.337C179.585 101.465 179.665 101.545 179.793 101.545H180.513C180.641 101.545 180.721 101.465 180.721 101.337V96.6654C180.721 95.4654 181.537 94.6014 182.641 94.5694C182.977 94.5534 183.233 94.5854 183.425 94.6494C183.569 94.6974 183.649 94.6494 183.681 94.5214L183.841 93.8174C183.873 93.7054 183.841 93.6094 183.729 93.5614C183.521 93.4494 183.249 93.3694 182.849 93.3694ZM188.182 93.3214C186.534 93.3214 185.35 94.1214 185.142 95.2894C185.126 95.4014 185.206 95.4494 185.334 95.4654L186.118 95.5614C186.246 95.5774 186.326 95.5294 186.358 95.4014C186.534 94.7294 187.19 94.3134 188.198 94.3134C189.526 94.3134 190.07 95.0334 190.07 96.0734V96.6654C190.07 96.7134 190.038 96.7454 189.99 96.7454H188.134C186.054 96.7454 184.838 97.7374 184.838 99.3374C184.838 101.017 186.118 101.673 187.478 101.673C188.486 101.673 189.382 101.353 189.974 100.729C190.022 100.665 190.07 100.697 190.07 100.761V101.337C190.07 101.465 190.15 101.545 190.278 101.545H190.998C191.126 101.545 191.206 101.465 191.206 101.337V96.0094C191.206 94.4254 190.134 93.3214 188.182 93.3214ZM187.734 100.697C186.758 100.697 185.974 100.249 185.974 99.2734C185.974 98.2334 186.918 97.6414 188.31 97.6414H189.99C190.038 97.6414 190.07 97.6734 190.07 97.7214V98.9534C190.07 100.073 188.918 100.697 187.734 100.697ZM196.913 93.3374C195.985 93.3374 195.233 93.6574 194.769 94.2974C194.737 94.3614 194.689 94.3134 194.689 94.2494V93.6574C194.689 93.5294 194.609 93.4494 194.481 93.4494H193.761C193.633 93.4494 193.553 93.5294 193.553 93.6574V101.337C193.553 101.465 193.633 101.545 193.761 101.545H194.481C194.609 101.545 194.689 101.465 194.689 101.337V96.0094C194.801 95.0014 195.569 94.3294 196.657 94.3294C197.793 94.3294 198.561 95.1454 198.561 96.3294V101.337C198.561 101.465 198.641 101.545 198.769 101.545H199.489C199.617 101.545 199.697 101.465 199.697 101.337V96.1054C199.697 94.4254 198.593 93.3374 196.913 93.3374ZM205.81 94.1854V93.6574C205.81 93.5294 205.73 93.4494 205.602 93.4494H203.858C203.81 93.4494 203.778 93.4174 203.778 93.3694V91.5774C203.778 91.4494 203.698 91.3694 203.57 91.3694H202.882C202.754 91.3694 202.674 91.4494 202.674 91.5774V93.3694C202.674 93.4174 202.642 93.4494 202.594 93.4494H201.682C201.554 93.4494 201.474 93.5294 201.474 93.6574V94.1854C201.474 94.3134 201.554 94.3934 201.682 94.3934H202.594C202.642 94.3934 202.674 94.4254 202.674 94.4734V99.4974C202.674 101.161 203.618 101.529 205.01 101.529H205.554C205.698 101.513 205.762 101.433 205.762 101.305V100.745C205.762 100.617 205.682 100.537 205.554 100.537H205.202C204.242 100.537 203.778 100.185 203.778 99.1454V94.4734C203.778 94.4254 203.81 94.3934 203.858 94.3934H205.602C205.73 94.3934 205.81 94.3134 205.81 94.1854ZM214.41 91.3374H214.73C214.858 91.3374 214.938 91.2574 214.938 91.1294V90.5534C214.938 90.4254 214.858 90.3454 214.73 90.3454H214.314C212.33 90.3454 211.77 91.0974 211.77 93.0014V93.3694C211.77 93.4174 211.738 93.4494 211.69 93.4494H210.682C210.554 93.4494 210.474 93.5294 210.474 93.6574V94.2814C210.474 94.4094 210.554 94.4894 210.682 94.4894H211.69C211.738 94.4894 211.77 94.5214 211.77 94.5694V101.337C211.77 101.465 211.85 101.545 211.978 101.545H212.682C212.81 101.545 212.89 101.465 212.89 101.337V94.5694C212.89 94.5214 212.922 94.4894 212.97 94.4894H214.698C214.826 94.4894 214.906 94.4094 214.906 94.2814V93.6574C214.906 93.5294 214.826 93.4494 214.698 93.4494H212.97C212.922 93.4494 212.89 93.4174 212.89 93.3694V93.0654C212.89 91.8494 213.194 91.3374 214.41 91.3374ZM220.177 93.3694C219.249 93.3694 218.561 93.8494 218.129 94.5854C218.097 94.6494 218.049 94.6334 218.049 94.5534V93.6574C218.049 93.5294 217.969 93.4494 217.841 93.4494H217.121C216.993 93.4494 216.913 93.5294 216.913 93.6574V101.337C216.913 101.465 216.993 101.545 217.121 101.545H217.841C217.969 101.545 218.049 101.465 218.049 101.337V96.6654C218.049 95.4654 218.865 94.6014 219.969 94.5694C220.305 94.5534 220.561 94.5854 220.753 94.6494C220.897 94.6974 220.977 94.6494 221.009 94.5214L221.169 93.8174C221.201 93.7054 221.169 93.6094 221.057 93.5614C220.849 93.4494 220.577 93.3694 220.177 93.3694ZM227.637 93.6574V98.6814C227.637 99.8654 226.869 100.665 225.653 100.665C224.469 100.665 223.749 99.8814 223.749 98.6814V93.6574C223.749 93.5294 223.669 93.4494 223.541 93.4494H222.821C222.693 93.4494 222.613 93.5294 222.613 93.6574V99.0174C222.613 100.729 223.909 101.657 225.429 101.657C226.405 101.657 227.109 101.305 227.541 100.697C227.589 100.633 227.637 100.665 227.637 100.729V101.337C227.637 101.465 227.717 101.545 227.845 101.545H228.565C228.693 101.545 228.773 101.465 228.773 101.337V93.6574C228.773 93.5294 228.693 93.4494 228.565 93.4494H227.845C227.717 93.4494 227.637 93.5294 227.637 93.6574ZM232.007 91.9934C232.519 91.9934 232.871 91.6574 232.871 91.1614C232.871 90.6814 232.519 90.3454 232.007 90.3454C231.495 90.3454 231.143 90.6814 231.143 91.1614C231.143 91.6574 231.495 91.9934 232.007 91.9934ZM231.655 101.545H232.375C232.503 101.545 232.583 101.465 232.583 101.337V93.6574C232.583 93.5294 232.503 93.4494 232.375 93.4494H231.655C231.527 93.4494 231.447 93.5294 231.447 93.6574V101.337C231.447 101.465 231.527 101.545 231.655 101.545ZM238.873 94.1854V93.6574C238.873 93.5294 238.793 93.4494 238.665 93.4494H236.921C236.873 93.4494 236.841 93.4174 236.841 93.3694V91.5774C236.841 91.4494 236.761 91.3694 236.633 91.3694H235.945C235.817 91.3694 235.737 91.4494 235.737 91.5774V93.3694C235.737 93.4174 235.705 93.4494 235.657 93.4494H234.745C234.617 93.4494 234.537 93.5294 234.537 93.6574V94.1854C234.537 94.3134 234.617 94.3934 234.745 94.3934H235.657C235.705 94.3934 235.737 94.4254 235.737 94.4734V99.4974C235.737 101.161 236.681 101.529 238.073 101.529H238.617C238.761 101.513 238.825 101.433 238.825 101.305V100.745C238.825 100.617 238.745 100.537 238.617 100.537H238.265C237.305 100.537 236.841 100.185 236.841 99.1454V94.4734C236.841 94.4254 236.873 94.3934 236.921 94.3934H238.665C238.793 94.3934 238.873 94.3134 238.873 94.1854ZM112.578 119.337C111.65 119.337 110.898 119.657 110.434 120.297C110.402 120.361 110.354 120.313 110.354 120.249V119.657C110.354 119.529 110.274 119.449 110.146 119.449H109.426C109.298 119.449 109.218 119.529 109.218 119.657V127.337C109.218 127.465 109.298 127.545 109.426 127.545H110.146C110.274 127.545 110.354 127.465 110.354 127.337V122.009C110.466 121.001 111.234 120.329 112.322 120.329C113.458 120.329 114.226 121.145 114.226 122.329V127.337C114.226 127.465 114.306 127.545 114.434 127.545H115.154C115.282 127.545 115.362 127.465 115.362 127.337V122.105C115.362 120.425 114.258 119.337 112.578 119.337ZM120.947 127.673C122.467 127.673 123.635 126.825 124.051 125.449C124.211 124.921 124.275 124.249 124.275 123.481C124.275 122.729 124.211 122.057 124.051 121.513C123.651 120.169 122.483 119.321 120.947 119.321C119.363 119.321 118.211 120.169 117.795 121.529C117.651 122.041 117.587 122.697 117.587 123.481C117.587 124.249 117.651 124.921 117.811 125.449C118.227 126.825 119.379 127.673 120.947 127.673ZM120.947 126.681C119.875 126.681 119.107 126.073 118.867 125.113C118.771 124.761 118.739 124.185 118.739 123.497C118.739 122.825 118.771 122.233 118.867 121.881C119.123 120.937 119.875 120.313 120.915 120.313C121.987 120.313 122.755 120.937 122.995 121.881C123.091 122.233 123.123 122.793 123.123 123.497C123.123 124.137 123.091 124.729 122.995 125.113C122.739 126.073 121.971 126.681 120.947 126.681ZM130.115 120.185V119.657C130.115 119.529 130.035 119.449 129.907 119.449H128.163C128.115 119.449 128.083 119.417 128.083 119.369V117.577C128.083 117.449 128.003 117.369 127.875 117.369H127.187C127.059 117.369 126.979 117.449 126.979 117.577V119.369C126.979 119.417 126.947 119.449 126.899 119.449H125.987C125.859 119.449 125.779 119.529 125.779 119.657V120.185C125.779 120.313 125.859 120.393 125.987 120.393H126.899C126.947 120.393 126.979 120.425 126.979 120.473V125.497C126.979 127.161 127.923 127.529 129.315 127.529H129.859C130.003 127.513 130.067 127.433 130.067 127.305V126.745C130.067 126.617 129.987 126.537 129.859 126.537H129.507C128.547 126.537 128.083 126.185 128.083 125.145V120.473C128.083 120.425 128.115 120.393 128.163 120.393H129.907C130.035 120.393 130.115 120.313 130.115 120.185ZM135.229 126.697C134.061 126.697 133.277 126.057 133.053 125.129C132.989 124.889 132.957 124.489 132.957 123.961C132.957 123.913 132.989 123.881 133.037 123.881H138.157C138.285 123.881 138.365 123.801 138.365 123.673C138.365 122.921 138.349 122.505 138.269 122.073C137.981 120.393 136.973 119.321 135.069 119.321C133.485 119.321 132.333 120.233 131.981 121.609C131.853 122.105 131.837 122.649 131.837 123.465C131.837 124.361 131.917 125.081 132.141 125.673C132.573 126.905 133.613 127.673 135.133 127.673C136.573 127.673 137.613 126.969 138.109 125.929C138.173 125.817 138.125 125.721 138.013 125.657L137.549 125.401C137.437 125.337 137.325 125.385 137.277 125.497C136.909 126.217 136.221 126.681 135.229 126.697ZM135.069 120.313C136.173 120.313 136.909 120.953 137.133 121.881C137.181 122.105 137.213 122.473 137.229 122.905C137.229 122.953 137.197 122.985 137.149 122.985H133.037C132.989 122.985 132.957 122.953 132.957 122.905C132.973 122.441 133.005 122.073 133.085 121.817C133.293 120.937 133.981 120.313 135.069 120.313ZM143.28 127.625C145.088 127.625 146.256 126.713 146.256 125.337C146.256 123.753 144.704 123.321 143.344 122.937C142.256 122.617 141.392 122.329 141.392 121.529C141.392 120.761 142.128 120.297 143.2 120.297C144.4 120.297 145.12 120.873 145.12 121.577V121.673C145.12 121.737 145.2 121.785 145.328 121.785H145.984C146.112 121.785 146.192 121.705 146.192 121.577C146.192 120.313 145.008 119.369 143.216 119.369C141.488 119.369 140.288 120.233 140.288 121.609C140.288 123.129 141.76 123.593 143.136 123.993C144.192 124.313 145.12 124.553 145.12 125.417C145.12 126.169 144.384 126.745 143.264 126.745C142.112 126.745 141.344 126.105 141.344 125.433V125.289C141.344 125.209 141.264 125.145 141.136 125.145H140.448C140.32 125.145 140.24 125.225 140.24 125.353V125.497C140.24 126.665 141.44 127.625 143.28 127.625Z" fill="#333D4B"/>
</svg>
